<svg width="16" height="15" viewBox="0 0 16 15" fill="none" xmlns="http://www.w3.org/2000/svg">
<path d="M5.03344 14.4068C11.0697 14.4068 14.3722 9.09193 14.3722 4.48434C14.3722 4.33492 14.3691 4.18219 14.3628 4.03277C15.0052 3.53914 15.5597 2.9277 16 2.22719C15.4017 2.51003 14.7664 2.69475 14.1159 2.77504C14.8009 2.33883 15.3137 1.65356 15.5594 0.84627C14.915 1.252 14.2104 1.5382 13.4756 1.69262C12.9806 1.13371 12.326 0.763643 11.6131 0.639638C10.9003 0.515634 10.1688 0.644596 9.53183 1.00659C8.89486 1.36858 8.38787 1.94344 8.08923 2.64228C7.7906 3.34113 7.71695 4.12504 7.87969 4.87281C6.575 4.80325 5.29862 4.44314 4.13332 3.81584C2.96802 3.18853 1.9398 2.30804 1.11531 1.23143C0.696266 1.99907 0.568038 2.90743 0.756687 3.77192C0.945337 4.6364 1.43671 5.39213 2.13094 5.88551C1.60975 5.86793 1.09998 5.71883 0.64375 5.45055V5.49371C0.643283 6.29929 0.905399 7.08018 1.38554 7.70365C1.86568 8.32711 2.53422 8.75467 3.2775 8.91363C2.7947 9.05398 2.28799 9.07443 1.79656 8.9734C2.0063 9.6662 2.41438 10.2721 2.96385 10.7067C3.51331 11.1412 4.17675 11.3826 4.86156 11.3972C3.69895 12.3676 2.26278 12.8939 0.784375 12.8914C0.522191 12.8909 0.260266 12.8739 0 12.8402C1.5019 13.864 3.24902 14.4077 5.03344 14.4068Z" fill="#232536"/>
</svg>
