<svg width="36" height="24" viewBox="0 0 36 24" fill="none" xmlns="http://www.w3.org/2000/svg">
<g filter="url(#filter0_d_533_2167)">
<path d="M5 7C4.44772 7 4 7.44772 4 8C4 8.55228 4.44772 9 5 9V7ZM31.7071 8.70711C32.0976 8.31658 32.0976 7.68342 31.7071 7.29289L25.3431 0.928932C24.9526 0.538408 24.3195 0.538408 23.9289 0.928932C23.5384 1.31946 23.5384 1.95262 23.9289 2.34315L29.5858 8L23.9289 13.6569C23.5384 14.0474 23.5384 14.6805 23.9289 15.0711C24.3195 15.4616 24.9526 15.4616 25.3431 15.0711L31.7071 8.70711ZM5 9H31V7H5V9Z" fill="#F4F4F4"/>
</g>
<defs>
<filter id="filter0_d_533_2167" x="0" y="0.63623" width="36" height="22.7275" filterUnits="userSpaceOnUse" color-interpolation-filters="sRGB">
<feFlood flood-opacity="0" result="BackgroundImageFix"/>
<feColorMatrix in="SourceAlpha" type="matrix" values="0 0 0 0 0 0 0 0 0 0 0 0 0 0 0 0 0 0 127 0" result="hardAlpha"/>
<feOffset dy="4"/>
<feGaussianBlur stdDeviation="2"/>
<feComposite in2="hardAlpha" operator="out"/>
<feColorMatrix type="matrix" values="0 0 0 0 0 0 0 0 0 0 0 0 0 0 0 0 0 0 0.25 0"/>
<feBlend mode="normal" in2="BackgroundImageFix" result="effect1_dropShadow_533_2167"/>
<feBlend mode="normal" in="SourceGraphic" in2="effect1_dropShadow_533_2167" result="shape"/>
</filter>
</defs>
</svg>
